<?xml version="1.0" encoding="UTF-8"?><svg id="Logo" xmlns="http://www.w3.org/2000/svg" viewBox="0 0 218.4 198.35"><defs><style>.cls-1{fill:#012169;}.cls-2{fill:#ffc600;}</style></defs><g><path class="cls-1" d="M45.63,93.27l9.83,9.83v16.15l-9.83,9.83H13.21v13.96h27.68l7.04-7.04,7.53,7.65-10.32,10.32H10.91l-9.84-9.83v-41.04l9.84-9.83H45.63Zm-2.31,10.93H13.21v17.36h1.09l3.4-3.4h25.62v-13.96Z"/><path class="cls-1" d="M68.21,153.98V68.99h12.14v84.99h-12.14Z"/><path class="cls-1" d="M93.1,103.11l9.83-9.83h34.24l10.32,10.32-7.53,7.53-7.04-6.92h-27.68v13.96h32.42l9.84,9.83v16.15l-9.84,9.83h-34.24l-10.32-10.32,7.53-7.65,7.04,7.04h27.68v-13.96h-32.42l-9.83-9.83v-16.15Z"/><path class="cls-1" d="M168.26,153.98l-9.83-9.83v-16.15l9.83-9.83h28.9l3.52-3.52v-10.44h-27.68l-7.04,6.92-7.53-7.53,10.32-10.32h34.24l9.84,9.83v39.95h5.58v10.93h-7.77l-5.46-5.46h-1.82l-5.46,5.46h-29.62Zm2.31-10.93h25.13l4.98-4.98v-12.51h-1.09l-3.4,3.52h-25.62v13.96Z"/></g><g><path class="cls-1" d="M11.39,176.6v1.73H1.26v-13.96H11.11v1.73H3.25v4.29h7v1.7H3.25v4.51H11.39Z"/><path class="cls-1" d="M24.05,167.77v10.57h-1.81v-1.6c-.39,.55-.89,.97-1.53,1.27-.63,.3-1.32,.45-2.06,.45-1.41,0-2.52-.39-3.33-1.17-.81-.78-1.22-1.92-1.22-3.44v-6.08h1.91v5.86c0,1.02,.25,1.8,.74,2.32,.49,.53,1.2,.79,2.11,.79,1.01,0,1.81-.31,2.39-.92,.59-.61,.88-1.48,.88-2.59v-5.46h1.92Z"/><path class="cls-1" d="M31.01,168.14c.65-.32,1.44-.48,2.37-.48v1.85c-.11-.01-.25-.02-.44-.02-1.04,0-1.85,.31-2.44,.93s-.89,1.5-.89,2.64v5.26h-1.91v-10.57h1.83v1.77c.33-.61,.82-1.08,1.48-1.4Z"/><path class="cls-1" d="M37.33,177.76c-.84-.47-1.49-1.11-1.96-1.92-.47-.82-.71-1.74-.71-2.78s.24-1.96,.71-2.78c.47-.82,1.12-1.46,1.96-1.91s1.78-.69,2.83-.69,1.99,.23,2.82,.69c.83,.46,1.48,1.1,1.95,1.91,.47,.82,.71,1.74,.71,2.78s-.24,1.96-.71,2.78c-.47,.82-1.12,1.46-1.95,1.92-.83,.47-1.77,.7-2.82,.7s-1.99-.23-2.83-.7Zm4.66-1.45c.54-.31,.96-.75,1.27-1.32,.3-.56,.46-1.21,.46-1.94s-.15-1.38-.46-1.94c-.31-.56-.73-1-1.27-1.31-.54-.31-1.15-.46-1.82-.46s-1.29,.15-1.82,.46c-.54,.31-.96,.74-1.28,1.31-.31,.57-.47,1.21-.47,1.94s.16,1.38,.47,1.94c.31,.57,.74,1,1.28,1.32,.54,.31,1.15,.47,1.82,.47s1.29-.16,1.82-.47Z"/><path class="cls-1" d="M56.65,168.34c.81,.45,1.45,1.08,1.9,1.89,.46,.81,.69,1.75,.69,2.81s-.23,2-.69,2.82c-.46,.82-1.09,1.45-1.9,1.9-.81,.45-1.73,.68-2.75,.68-.76,0-1.45-.15-2.08-.44-.63-.29-1.17-.72-1.61-1.28v5.46h-1.91v-14.44h1.83v1.68c.43-.58,.96-1.03,1.62-1.33,.65-.3,1.37-.45,2.15-.45,1.02,0,1.94,.23,2.75,.68Zm-1.09,7.97c.54-.31,.96-.75,1.28-1.32,.31-.56,.47-1.21,.47-1.94s-.16-1.38-.47-1.94c-.31-.56-.74-1-1.28-1.31-.54-.31-1.15-.46-1.82-.46s-1.27,.16-1.8,.47c-.54,.31-.96,.75-1.28,1.31s-.47,1.2-.47,1.93,.15,1.38,.46,1.94c.3,.57,.73,1,1.28,1.32,.54,.31,1.15,.47,1.81,.47s1.29-.16,1.82-.47Z"/><path class="cls-1" d="M71.41,173.69h-8.57c.12,.93,.53,1.68,1.23,2.24,.7,.57,1.56,.85,2.6,.85,1.26,0,2.28-.43,3.05-1.28l1.06,1.24c-.48,.56-1.07,.98-1.78,1.28-.71,.29-1.51,.44-2.38,.44-1.12,0-2.11-.23-2.97-.69-.86-.46-1.53-1.1-2-1.92-.47-.82-.71-1.75-.71-2.79s.23-1.95,.69-2.77c.46-.82,1.09-1.47,1.89-1.92s1.71-.69,2.72-.69,1.91,.23,2.7,.69,1.41,1.1,1.85,1.92c.45,.82,.67,1.77,.67,2.83,0,.15-.01,.34-.04,.58Zm-7.49-3.57c-.62,.56-.98,1.29-1.09,2.19h6.78c-.11-.89-.47-1.62-1.09-2.18-.62-.56-1.39-.85-2.3-.85s-1.68,.28-2.3,.84Z"/><path class="cls-1" d="M81.01,168.74c.78,.72,1.17,1.79,1.17,3.21v6.38h-1.82v-1.4c-.32,.49-.77,.87-1.37,1.13s-1.29,.39-2.1,.39c-1.18,0-2.13-.29-2.84-.86-.71-.57-1.07-1.32-1.07-2.25s.34-1.68,1.02-2.24c.68-.56,1.76-.85,3.23-.85h3.03v-.38c0-.82-.24-1.46-.72-1.89s-1.18-.66-2.11-.66c-.62,0-1.24,.1-1.84,.31-.6,.21-1.1,.48-1.52,.83l-.8-1.44c.54-.44,1.2-.77,1.95-1.01,.76-.23,1.56-.35,2.41-.35,1.46,0,2.58,.36,3.36,1.08Zm-1.9,7.75c.53-.33,.92-.79,1.16-1.39v-1.48h-2.95c-1.62,0-2.43,.55-2.43,1.64,0,.53,.21,.95,.62,1.26,.41,.31,.98,.46,1.71,.46s1.36-.16,1.89-.49Z"/><path class="cls-1" d="M94.57,168.83c.79,.78,1.19,1.92,1.19,3.42v6.08h-1.92v-5.86c0-1.02-.25-1.79-.74-2.31-.49-.52-1.2-.78-2.12-.78-1.04,0-1.85,.3-2.45,.91-.6,.6-.9,1.47-.9,2.6v5.44h-1.91v-10.57h1.83v1.6c.39-.54,.91-.96,1.57-1.26,.66-.29,1.4-.44,2.24-.44,1.34,0,2.41,.39,3.2,1.17Z"/><path class="cls-1" d="M106.15,164.38h1.99v12.22h7.56v1.73h-9.55v-13.96Z"/><path class="cls-1" d="M117.74,165.37c-.25-.24-.37-.53-.37-.88s.12-.64,.37-.89c.25-.25,.55-.37,.93-.37s.68,.12,.93,.35c.25,.23,.37,.52,.37,.87s-.12,.66-.37,.91c-.25,.25-.55,.37-.93,.37s-.68-.12-.93-.36Zm-.03,2.39h1.92v10.57h-1.92v-10.57Z"/><path class="cls-1" d="M133.39,167.77v9.13c0,1.85-.46,3.21-1.38,4.1-.92,.88-2.29,1.33-4.11,1.33-1,0-1.95-.14-2.85-.41-.9-.27-1.64-.66-2.2-1.17l.92-1.48c.49,.43,1.1,.76,1.82,1.01,.72,.25,1.47,.37,2.24,.37,1.24,0,2.15-.29,2.74-.88,.59-.59,.89-1.48,.89-2.67v-.84c-.45,.55-1.01,.95-1.66,1.23s-1.37,.41-2.14,.41c-1.01,0-1.92-.22-2.74-.65-.82-.43-1.46-1.04-1.92-1.81-.46-.78-.7-1.67-.7-2.66s.23-1.88,.7-2.66c.46-.78,1.11-1.38,1.92-1.8,.82-.43,1.73-.64,2.74-.64,.8,0,1.54,.15,2.22,.44,.69,.29,1.25,.72,1.69,1.3v-1.64h1.81Zm-3.64,8.02c.55-.29,.98-.7,1.3-1.23s.47-1.12,.47-1.78c0-1.02-.34-1.85-1.02-2.48-.68-.63-1.55-.95-2.61-.95s-1.95,.32-2.63,.95c-.68,.63-1.02,1.46-1.02,2.48,0,.67,.16,1.26,.47,1.78s.74,.93,1.3,1.23c.55,.29,1.18,.44,1.88,.44s1.31-.15,1.87-.44Z"/><path class="cls-1" d="M145.88,168.83c.79,.78,1.19,1.92,1.19,3.42v6.08h-1.92v-5.86c0-1.02-.25-1.79-.74-2.31-.49-.52-1.2-.78-2.12-.78-1.04,0-1.85,.3-2.45,.91-.6,.6-.9,1.47-.9,2.6v5.44h-1.91v-14.8h1.91v5.72c.4-.5,.92-.9,1.57-1.18,.64-.28,1.37-.42,2.16-.42,1.34,0,2.41,.39,3.2,1.17Z"/><path class="cls-1" d="M156.56,177.72c-.28,.24-.62,.42-1.04,.55-.41,.13-.84,.19-1.28,.19-1.06,0-1.89-.29-2.47-.86-.59-.57-.88-1.39-.88-2.45v-5.8h-1.79v-1.58h1.79v-2.31h1.91v2.31h3.03v1.58h-3.03v5.72c0,.57,.14,1.01,.43,1.32,.29,.31,.7,.46,1.23,.46,.59,0,1.08-.17,1.5-.5l.6,1.38Z"/><path class="cls-1" d="M167.72,168.83c.79,.78,1.19,1.92,1.19,3.42v6.08h-1.92v-5.86c0-1.02-.25-1.79-.74-2.31-.49-.52-1.2-.78-2.12-.78-1.04,0-1.85,.3-2.45,.91-.6,.6-.9,1.47-.9,2.6v5.44h-1.91v-14.8h1.91v5.72c.4-.5,.92-.9,1.57-1.18,.64-.28,1.37-.42,2.16-.42,1.34,0,2.41,.39,3.2,1.17Z"/><path class="cls-1" d="M174.21,177.76c-.84-.47-1.49-1.11-1.96-1.92-.47-.82-.71-1.74-.71-2.78s.24-1.96,.71-2.78c.47-.82,1.12-1.46,1.96-1.91s1.78-.69,2.83-.69,1.99,.23,2.82,.69c.83,.46,1.48,1.1,1.95,1.91,.47,.82,.71,1.74,.71,2.78s-.24,1.96-.71,2.78c-.47,.82-1.12,1.46-1.95,1.92-.83,.47-1.77,.7-2.82,.7s-1.99-.23-2.83-.7Zm4.66-1.45c.54-.31,.96-.75,1.27-1.32,.3-.56,.46-1.21,.46-1.94s-.15-1.38-.46-1.94c-.31-.56-.73-1-1.27-1.31-.54-.31-1.15-.46-1.82-.46s-1.29,.15-1.82,.46c-.54,.31-.96,.74-1.28,1.31-.31,.57-.47,1.21-.47,1.94s.16,1.38,.47,1.94c.31,.57,.74,1,1.28,1.32,.54,.31,1.15,.47,1.82,.47s1.29-.16,1.82-.47Z"/><path class="cls-1" d="M195.03,167.77v10.57h-1.81v-1.6c-.38,.55-.89,.97-1.53,1.27s-1.32,.45-2.06,.45c-1.41,0-2.52-.39-3.33-1.17-.81-.78-1.22-1.92-1.22-3.44v-6.08h1.91v5.86c0,1.02,.25,1.8,.74,2.32,.49,.53,1.2,.79,2.12,.79,1.01,0,1.81-.31,2.39-.92,.58-.61,.88-1.48,.88-2.59v-5.46h1.91Z"/><path class="cls-1" d="M199.21,178.11c-.8-.23-1.42-.53-1.88-.89l.8-1.52c.46,.33,1.03,.6,1.7,.8,.66,.2,1.34,.3,2.01,.3,1.68,0,2.51-.48,2.51-1.44,0-.32-.11-.57-.34-.76-.23-.19-.51-.32-.85-.41-.34-.09-.82-.18-1.45-.29-.85-.13-1.54-.29-2.08-.46-.54-.17-1-.47-1.39-.88-.38-.41-.58-.99-.58-1.73,0-.96,.4-1.72,1.2-2.3s1.87-.87,3.21-.87c.7,0,1.41,.09,2.11,.26,.71,.17,1.28,.41,1.73,.7l-.82,1.52c-.87-.56-1.88-.84-3.05-.84-.81,0-1.43,.13-1.86,.4-.43,.27-.64,.62-.64,1.06,0,.35,.12,.62,.36,.82,.24,.2,.54,.35,.89,.44,.35,.09,.85,.2,1.49,.32,.85,.15,1.54,.3,2.06,.47s.97,.45,1.35,.85c.37,.4,.56,.96,.56,1.68,0,.96-.41,1.72-1.23,2.28-.82,.57-1.93,.85-3.34,.85-.87,0-1.7-.12-2.49-.35Z"/><path class="cls-1" d="M218.18,173.69h-8.57c.12,.93,.53,1.68,1.23,2.24,.7,.57,1.56,.85,2.6,.85,1.26,0,2.28-.43,3.05-1.28l1.06,1.24c-.48,.56-1.07,.98-1.78,1.28-.71,.29-1.51,.44-2.38,.44-1.12,0-2.11-.23-2.97-.69-.86-.46-1.53-1.1-2-1.92-.47-.82-.71-1.75-.71-2.79s.23-1.95,.69-2.77c.46-.82,1.09-1.47,1.89-1.92s1.71-.69,2.72-.69,1.91,.23,2.7,.69,1.41,1.1,1.85,1.92c.45,.82,.67,1.77,.67,2.83,0,.15-.01,.34-.04,.58Zm-7.49-3.57c-.62,.56-.98,1.29-1.09,2.19h6.78c-.11-.89-.47-1.62-1.09-2.18-.62-.56-1.39-.85-2.3-.85s-1.68,.28-2.3,.84Z"/><path class="cls-1" d="M2.67,197.61c-.84-.47-1.49-1.11-1.96-1.92-.47-.82-.71-1.74-.71-2.78s.24-1.96,.71-2.78c.47-.82,1.12-1.46,1.96-1.91s1.78-.69,2.83-.69,1.99,.23,2.82,.69c.83,.46,1.48,1.1,1.95,1.91,.47,.82,.71,1.74,.71,2.78s-.24,1.96-.71,2.78c-.47,.82-1.12,1.46-1.95,1.92-.83,.47-1.77,.7-2.82,.7s-1.99-.23-2.83-.7Zm4.66-1.45c.54-.31,.96-.75,1.27-1.32,.3-.56,.46-1.21,.46-1.94s-.15-1.38-.46-1.94c-.31-.56-.73-1-1.27-1.31-.54-.31-1.15-.46-1.82-.46s-1.29,.15-1.82,.46c-.54,.31-.96,.74-1.28,1.31-.31,.57-.47,1.21-.47,1.94s.16,1.38,.47,1.94c.31,.57,.74,1,1.28,1.32,.54,.31,1.15,.47,1.82,.47s1.29-.16,1.82-.47Z"/><path class="cls-1" d="M22.48,188.68c.79,.78,1.19,1.92,1.19,3.42v6.08h-1.92v-5.86c0-1.02-.25-1.79-.74-2.31-.49-.52-1.2-.78-2.12-.78-1.04,0-1.85,.3-2.45,.91-.6,.6-.9,1.47-.9,2.6v5.44h-1.91v-10.57h1.83v1.6c.39-.54,.91-.96,1.57-1.26,.66-.29,1.4-.44,2.24-.44,1.34,0,2.41,.39,3.2,1.17Z"/><path class="cls-1" d="M33.89,197.86c-.98-.33-1.74-.75-2.3-1.27l.74-1.56c.53,.48,1.21,.87,2.04,1.17s1.69,.45,2.56,.45c1.16,0,2.02-.2,2.59-.59,.57-.39,.86-.91,.86-1.57,0-.48-.16-.87-.47-1.17-.31-.3-.7-.53-1.16-.69-.46-.16-1.11-.34-1.94-.54-1.05-.25-1.9-.5-2.54-.76-.64-.25-1.2-.64-1.65-1.17-.46-.52-.69-1.23-.69-2.12,0-.74,.2-1.42,.59-2.01,.39-.6,.99-1.08,1.78-1.44,.8-.36,1.79-.54,2.97-.54,.82,0,1.63,.11,2.43,.32,.8,.21,1.48,.52,2.05,.92l-.66,1.6c-.59-.37-1.21-.65-1.88-.85-.66-.19-1.32-.29-1.95-.29-1.13,0-1.98,.21-2.54,.62-.56,.41-.85,.94-.85,1.6,0,.48,.16,.87,.48,1.17s.71,.53,1.19,.7c.47,.17,1.11,.34,1.92,.53,1.05,.25,1.89,.51,2.53,.76,.64,.25,1.19,.64,1.64,1.16,.46,.52,.69,1.22,.69,2.09,0,.73-.2,1.4-.6,2-.4,.6-1,1.08-1.81,1.44-.81,.35-1.81,.53-2.99,.53-1.05,0-2.06-.16-3.04-.49Z"/><path class="cls-1" d="M54.48,193.54h-8.58c.12,.93,.53,1.68,1.23,2.24,.7,.57,1.57,.85,2.6,.85,1.26,0,2.28-.43,3.05-1.28l1.06,1.24c-.48,.56-1.07,.98-1.79,1.28-.71,.29-1.51,.44-2.38,.44-1.12,0-2.11-.23-2.97-.69-.87-.46-1.53-1.1-2-1.92-.47-.82-.71-1.75-.71-2.79s.23-1.95,.69-2.77c.46-.82,1.09-1.47,1.89-1.92s1.71-.69,2.72-.69,1.91,.23,2.7,.69,1.41,1.1,1.86,1.92c.45,.82,.67,1.77,.67,2.83,0,.15-.01,.34-.04,.58Zm-7.49-3.57c-.62,.56-.98,1.29-1.09,2.19h6.78c-.11-.89-.47-1.62-1.09-2.18-.62-.56-1.38-.85-2.3-.85s-1.69,.28-2.3,.84Z"/><path class="cls-1" d="M58.9,197.61c-.84-.47-1.51-1.11-1.98-1.92s-.72-1.74-.72-2.78,.24-1.96,.72-2.78,1.14-1.46,1.98-1.91,1.8-.69,2.88-.69c.96,0,1.81,.19,2.56,.58,.75,.39,1.33,.94,1.75,1.68l-1.46,.94c-.33-.51-.74-.88-1.24-1.14-.49-.25-1.04-.38-1.63-.38-.69,0-1.31,.15-1.86,.46-.55,.31-.98,.74-1.3,1.31-.31,.57-.47,1.21-.47,1.94s.16,1.4,.47,1.96c.31,.57,.74,1,1.3,1.31,.55,.31,1.17,.46,1.86,.46,.6,0,1.14-.13,1.63-.38,.49-.25,.9-.63,1.24-1.14l1.46,.92c-.41,.73-.99,1.29-1.75,1.69-.75,.39-1.61,.59-2.56,.59-1.08,0-2.04-.23-2.88-.7Z"/><path class="cls-1" d="M78.41,187.62v10.57h-1.81v-1.6c-.39,.55-.89,.97-1.53,1.27-.63,.3-1.32,.45-2.06,.45-1.41,0-2.52-.39-3.33-1.17-.81-.78-1.22-1.92-1.22-3.44v-6.08h1.91v5.86c0,1.02,.25,1.8,.74,2.32,.49,.53,1.2,.79,2.11,.79,1.01,0,1.81-.31,2.39-.92,.59-.61,.88-1.48,.88-2.59v-5.46h1.92Z"/><path class="cls-1" d="M85.37,188c.65-.32,1.44-.48,2.37-.48v1.85c-.11-.01-.25-.02-.44-.02-1.04,0-1.85,.31-2.44,.93s-.89,1.5-.89,2.64v5.26h-1.91v-10.57h1.83v1.77c.33-.61,.82-1.08,1.48-1.4Z"/><path class="cls-1" d="M99.51,193.54h-8.58c.12,.93,.53,1.68,1.23,2.24,.7,.57,1.57,.85,2.6,.85,1.26,0,2.28-.43,3.05-1.28l1.06,1.24c-.48,.56-1.07,.98-1.79,1.28-.71,.29-1.51,.44-2.38,.44-1.12,0-2.11-.23-2.97-.69-.87-.46-1.53-1.1-2-1.92-.47-.82-.71-1.75-.71-2.79s.23-1.95,.69-2.77c.46-.82,1.09-1.47,1.89-1.92s1.71-.69,2.72-.69,1.91,.23,2.7,.69,1.41,1.1,1.86,1.92c.45,.82,.67,1.77,.67,2.83,0,.15-.01,.34-.04,.58Zm-7.49-3.57c-.62,.56-.98,1.29-1.09,2.19h6.78c-.11-.89-.47-1.62-1.09-2.18-.62-.56-1.38-.85-2.3-.85s-1.69,.28-2.3,.84Z"/><path class="cls-1" d="M114.77,188.59c.78,.72,1.17,1.79,1.17,3.21v6.38h-1.82v-1.4c-.32,.49-.77,.87-1.37,1.13s-1.29,.39-2.1,.39c-1.18,0-2.13-.29-2.84-.86-.71-.57-1.07-1.32-1.07-2.25s.34-1.68,1.02-2.24c.68-.56,1.76-.85,3.23-.85h3.03v-.38c0-.82-.24-1.46-.72-1.89s-1.18-.66-2.11-.66c-.62,0-1.24,.1-1.84,.31-.6,.21-1.1,.48-1.52,.83l-.8-1.44c.54-.44,1.2-.77,1.95-1.01,.76-.23,1.56-.35,2.41-.35,1.46,0,2.58,.36,3.36,1.08Zm-1.9,7.75c.53-.33,.92-.79,1.16-1.39v-1.48h-2.95c-1.62,0-2.43,.55-2.43,1.64,0,.53,.21,.95,.62,1.26,.41,.31,.98,.46,1.71,.46s1.36-.16,1.89-.49Z"/><path class="cls-1" d="M128.33,188.68c.79,.78,1.19,1.92,1.19,3.42v6.08h-1.92v-5.86c0-1.02-.25-1.79-.74-2.31-.49-.52-1.2-.78-2.12-.78-1.04,0-1.85,.3-2.45,.91-.6,.6-.9,1.47-.9,2.6v5.44h-1.91v-10.57h1.83v1.6c.39-.54,.91-.96,1.57-1.26,.66-.29,1.4-.44,2.24-.44,1.34,0,2.41,.39,3.2,1.17Z"/><path class="cls-1" d="M143.1,183.39v14.8h-1.83v-1.68c-.43,.59-.96,1.03-1.62,1.34-.65,.31-1.37,.46-2.15,.46-1.02,0-1.94-.23-2.75-.68-.81-.45-1.45-1.09-1.9-1.9-.46-.82-.69-1.76-.69-2.82s.23-2,.69-2.81c.46-.81,1.09-1.44,1.9-1.89,.81-.45,1.73-.68,2.75-.68,.76,0,1.46,.14,2.09,.43,.64,.29,1.17,.71,1.6,1.27v-5.82h1.91Zm-3.63,12.77c.54-.31,.97-.75,1.28-1.32,.31-.56,.46-1.21,.46-1.94s-.15-1.38-.46-1.94c-.31-.56-.73-1-1.28-1.31-.55-.31-1.15-.46-1.81-.46s-1.29,.15-1.83,.46c-.54,.31-.96,.74-1.28,1.31-.31,.57-.47,1.21-.47,1.94s.16,1.38,.47,1.94c.31,.57,.74,1,1.28,1.32,.54,.31,1.15,.47,1.83,.47s1.27-.16,1.81-.47Z"/><path class="cls-1" d="M153.4,197.86c-.98-.33-1.74-.75-2.3-1.27l.74-1.56c.53,.48,1.21,.87,2.04,1.17s1.69,.45,2.56,.45c1.16,0,2.02-.2,2.59-.59,.57-.39,.86-.91,.86-1.57,0-.48-.16-.87-.47-1.17-.31-.3-.7-.53-1.16-.69-.46-.16-1.11-.34-1.94-.54-1.05-.25-1.9-.5-2.54-.76-.64-.25-1.2-.64-1.65-1.17-.46-.52-.69-1.23-.69-2.12,0-.74,.2-1.42,.59-2.01,.39-.6,.99-1.08,1.78-1.44,.8-.36,1.79-.54,2.97-.54,.82,0,1.63,.11,2.43,.32,.8,.21,1.48,.52,2.05,.92l-.66,1.6c-.59-.37-1.21-.65-1.88-.85-.66-.19-1.32-.29-1.95-.29-1.13,0-1.98,.21-2.54,.62-.56,.41-.85,.94-.85,1.6,0,.48,.16,.87,.48,1.17s.71,.53,1.19,.7c.47,.17,1.11,.34,1.92,.53,1.05,.25,1.89,.51,2.53,.76,.64,.25,1.19,.64,1.64,1.16,.46,.52,.69,1.22,.69,2.09,0,.73-.2,1.4-.6,2-.4,.6-1,1.08-1.81,1.44-.81,.35-1.81,.53-2.99,.53-1.05,0-2.06-.16-3.04-.49Z"/><path class="cls-1" d="M171.68,188.59c.78,.72,1.17,1.79,1.17,3.21v6.38h-1.82v-1.4c-.32,.49-.77,.87-1.37,1.13s-1.29,.39-2.1,.39c-1.18,0-2.13-.29-2.84-.86-.71-.57-1.07-1.32-1.07-2.25s.34-1.68,1.02-2.24c.68-.56,1.76-.85,3.23-.85h3.03v-.38c0-.82-.24-1.46-.72-1.89s-1.18-.66-2.11-.66c-.62,0-1.24,.1-1.84,.31-.6,.21-1.1,.48-1.52,.83l-.8-1.44c.54-.44,1.2-.77,1.95-1.01,.76-.23,1.56-.35,2.41-.35,1.46,0,2.58,.36,3.36,1.08Zm-1.9,7.75c.53-.33,.92-.79,1.16-1.39v-1.48h-2.95c-1.62,0-2.43,.55-2.43,1.64,0,.53,.21,.95,.62,1.26,.41,.31,.98,.46,1.71,.46s1.36-.16,1.89-.49Z"/><path class="cls-1" d="M178.55,186.7v.92h3.07v1.58h-3.03v8.99h-1.91v-8.99h-1.79v-1.58h1.79v-.94c0-1.05,.31-1.88,.92-2.49,.61-.61,1.47-.92,2.57-.92,.43,0,.82,.05,1.2,.16,.37,.11,.69,.26,.96,.46l-.58,1.46c-.44-.33-.93-.5-1.48-.5-1.14,0-1.71,.62-1.71,1.85Z"/><path class="cls-1" d="M192.79,193.54h-8.58c.12,.93,.53,1.68,1.23,2.24,.7,.57,1.57,.85,2.6,.85,1.26,0,2.28-.43,3.05-1.28l1.06,1.24c-.48,.56-1.07,.98-1.79,1.28-.71,.29-1.51,.44-2.38,.44-1.12,0-2.11-.23-2.97-.69-.87-.46-1.53-1.1-2-1.92-.47-.82-.71-1.75-.71-2.79s.23-1.95,.69-2.77c.46-.82,1.09-1.47,1.89-1.92s1.71-.69,2.72-.69,1.91,.23,2.7,.69,1.41,1.1,1.86,1.92c.45,.82,.67,1.77,.67,2.83,0,.15-.01,.34-.04,.58Zm-7.49-3.57c-.62,.56-.98,1.29-1.09,2.19h6.78c-.11-.89-.47-1.62-1.09-2.18-.62-.56-1.38-.85-2.3-.85s-1.69,.28-2.3,.84Z"/><path class="cls-1" d="M210.02,194.7h-7.42l-1.54,3.49h-2.05l6.32-13.96h1.97l6.34,13.96h-2.09l-1.54-3.49Zm-.7-1.6l-3.01-6.84-3.01,6.84h6.02Z"/><path class="cls-1" d="M215.72,184.23h1.99v13.96h-1.99v-13.96Z"/></g><g><polygon class="cls-2" points="93.74 75.47 211.79 75.46 211.79 .85 93.74 75.47"/><path class="cls-1" d="M212.79,.85V0h-1.53L93.21,74.62h0v1.85h118.59l1-1V.85h0Zm-2,73.62H97.2L210.79,2.66V74.46Z"/></g></svg>